<svg xmlns="http://www.w3.org/2000/svg" viewBox="0 0 512 512"><!--! Font Awesome Free 6.1.1 by @fontawesome - https://fontawesome.com License - https://fontawesome.com/license/free (Icons: CC BY 4.0, Fonts: SIL OFL 1.1, Code: MIT License) Copyright 2022 Fonticons, Inc. --><path d="M 287.7521057128906 453.7371520996094 C 302.0002136230469 453.7371520996094 313.55096435546875 443.4609680175781 313.55096435546875 430.78509521484375 L 313.55096435546875 402.53717041015625 C 313.55096435546875 389.86126708984375 302.0002136230469 379.5850524902344 287.7521057128906 379.5850524902344 C 273.5040283203125 379.5850524902344 261.9532470703125 389.86126708984375 261.9532470703125 402.53717041015625 L 261.9532470703125 430.78509521484375 C 261.9532470703125 443.4626770019531 273.5040283203125 453.7371520996094 287.7521057128906 453.7371520996094 Z " transform="matrix(1, 0, 0, 1, -31.7531, 1.46119e-05)" stroke-width="2.1728590623378192" class=""></path><path d="M 537.6934204101562 8.174760818481445 C 532.7909545898438 2.990976333618164 525.567138671875 4.899634639525009e-14 517.9537963867188 4.899634639525009e-14 L 57.5504264831543 4.899634639525009e-14 C 49.937103271484375 4.899634639525009e-14 42.71326446533203 2.990976333618164 37.810821533203125 8.174760818481445 C 32.910316467285156 13.356821060180664 30.831138610839844 20.202449798583984 32.1332893371582 26.873964309692383 L 65.4892807006836 197.94573974609375 L 65.4892807006836 286.01318359375 C 65.4892807006836 298.6890563964844 77.04005432128906 308.96527099609375 91.28814697265625 308.96527099609375 L 196.46591186523438 308.96527099609375 L 196.46591186523438 489.04791259765625 C 196.46591186523438 501.7237854003906 208.0166778564453 512 222.26478576660156 512 L 353.24139404296875 512 C 367.4894714355469 512 379.0402526855469 501.7237854003906 379.0402526855469 489.04791259765625 L 379.0402526855469 308.96527099609375 L 484.218017578125 308.96527099609375 C 498.46612548828125 308.96527099609375 510.01690673828125 298.6890563964844 510.01690673828125 286.01318359375 L 510.01690673828125 197.94573974609375 L 543.3728637695312 26.873964309692383 C 544.675048828125 20.202449798583984 542.5958862304688 13.356821060180664 537.6934204101562 8.174760818481445 Z M 487.2951354980469 45.90415954589844 L 462.164794921875 174.7867889404297 L 412.77606201171875 174.7867889404297 L 412.77606201171875 139.4760284423828 C 412.77606201171875 126.80016326904297 401.22528076171875 116.52396392822266 386.9772033691406 116.52396392822266 C 372.7290954589844 116.52396392822266 361.1783447265625 126.80016326904297 361.1783447265625 139.4760284423828 L 361.1783447265625 174.7867889404297 L 319.5036926269531 174.7867889404297 L 319.5036926269531 93.57360076904297 C 319.5036926269531 80.89772033691406 307.9529113769531 70.62152099609375 293.704833984375 70.62152099609375 C 279.4566955566406 70.62152099609375 267.90594482421875 80.89772033691406 267.90594482421875 93.57360076904297 L 267.90594482421875 174.7867889404297 L 214.32398986816406 174.7867889404297 L 214.32398986816406 111.2281265258789 C 214.32398986816406 98.55223846435547 202.773193359375 88.27603912353516 188.52511596679688 88.27603912353516 C 174.2770233154297 88.27603912353516 162.7262420654297 98.55223846435547 162.7262420654297 111.2281265258789 L 162.7262420654297 174.7867889404297 L 113.3394546508789 174.7867889404297 L 88.2091064453125 45.90415954589844 L 487.2951354980469 45.90415954589844 Z M 327.4425354003906 466.0958557128906 L 248.06170654296875 466.0958557128906 L 248.06170654296875 308.96527099609375 L 327.4425354003906 308.96527099609375 L 327.4425354003906 466.0958557128906 Z M 117.08507537841797 263.0628356933594 L 117.08507537841797 220.6909637451172 L 458.4191589355469 220.6909637451172 L 458.4191589355469 263.0628356933594 L 117.08507537841797 263.0628356933594 Z " transform="matrix(1, 0, 0, 1, -31.7531, 1.46119e-05)" stroke-width="2.1728590623378192" class=""></path></svg>
