<svg xmlns="http://www.w3.org/2000/svg" viewBox="0 0 512 512"><!--! Font Awesome Free 6.0.0 by @fontawesome - https://fontawesome.com License - https://fontawesome.com/license/free (Icons: CC BY 4.0, Fonts: SIL OFL 1.1, Code: MIT License) Copyright 2022 Fonticons, Inc. --><path d="M 0 96 C 0 78.33 14.33 64 32 64 L 416 64 C 433.7 64 448 78.33 448 96 C 448 113.7 433.7 128 416 128 L 32 128 C 14.33 128 0 113.7 0 96 Z M 0 256 C 0 238.3 14.33 224 32 224 L 416 224 C 433.7 224 448 238.3 448 256 C 448 273.7 433.7 288 416 288 L 32 288 C 14.33 288 0 273.7 0 256 Z M 416 448 L 32 448 C 14.33 448 0 433.7 0 416 C 0 398.3 14.33 384 32 384 L 416 384 C 433.7 384 448 398.3 448 416 C 448 433.7 433.7 448 416 448 Z" transform="matrix(1, 0, 0, 1, 32, 0)" class=""/></svg>
