<svg xmlns="http://www.w3.org/2000/svg" viewBox="0 0 512 512"><!--! Font Awesome Free 6.1.1 by @fontawesome - https://fontawesome.com License - https://fontawesome.com/license/free (Icons: CC BY 4.0, Fonts: SIL OFL 1.1, Code: MIT License) Copyright 2022 Fonticons, Inc. --><g transform="matrix(-1, -1.22465e-16, 1.22465e-16, -1, -33.3016, 544.664)" fill="#000000" stroke="none" class="">
<path d="M -257.94580078125 543.7686157226562 C -197.6643829345703 535.757080078125 -143.59170532226562 508.45013427734375 -102.72677612304688 465.2330322265625 C -73.03760528564453 433.8639221191406 -51.13761520385742 394.59613037109375 -40.75204849243164 353.97430419921875 C -34.09174346923828 328.2471008300781 -33.301536560058594 321.2510986328125 -33.301536560058594 288.8664855957031 C -33.301536560058594 256.4818420410156 -34.09174346923828 249.48585510253906 -40.75204849243164 223.75868225097656 C -64.23246002197266 132.02101135253906 -140.6566619873047 58.563167572021484 -233.56231689453125 38.365081787109375 C -267.42828369140625 30.917739868164062 -308.6318664550781 30.804903030395508 -342.0462951660156 37.80088806152344 C -378.5086364746094 45.47390365600586 -413.1648254394531 61.38412857055664 -444.54730224609375 84.96736145019531 C -458.54522705078125 95.46134185791016 -482.4771728515625 119.38310241699219 -492.97564697265625 133.3750762939453 C -516.5689086914062 164.74417114257812 -532.4859619140625 199.3855743408203 -540.1622314453125 235.8323974609375 C -547.1611938476562 269.2325744628906 -547.04833984375 310.41864013671875 -539.5977783203125 344.2701721191406 C -525.1483154296875 410.7320251464844 -482.7029724121094 470.6492614746094 -424.340576171875 506.757568359375 C -396.006103515625 524.3603515625 -365.5267028808594 535.8699340820312 -330.7576599121094 542.1888427734375 C -318.22723388671875 544.4456176757812 -270.8148498535156 545.573974609375 -257.94580078125 543.7686157226562 Z M -316.6468200683594 511.7224426269531 C -429.1947021484375 497.7304992675781 -513.6338500976562 402.1562805175781 -513.6338500976562 288.8664855957031 C -513.6338500976562 164.96983337402344 -412.9390563964844 64.31792449951172 -288.9895935058594 64.31792449951172 C -175.65150451660156 64.31792449951172 -80.03657531738281 148.7211151123047 -66.03863525390625 261.2210388183594 C -55.427303314208984 345.737060546875 -94.14739990234375 429.5760498046875 -165.3788299560547 476.5168762207031 C -193.2617950439453 494.9095153808594 -230.40147399902344 508.45013427734375 -262.4612731933594 512.0609741210938 C -276.9107360839844 513.7535400390625 -302.0844421386719 513.5278930664062 -316.6468200683594 511.7224426269531 Z " transform="matrix(1, 0, 0, 1, 0, 0)" stroke-width="5.391245399371894"></path>
<path d="M -200.3736572265625 349.0093688964844 C -161.3148956298828 316.3990783691406 -129.14222717285156 289.4306945800781 -129.0293426513672 288.9793395996094 C -128.80357360839844 288.3022766113281 -270.1375427246094 170.16041564941406 -272.1695251464844 169.48338317871094 C -272.73394775390625 169.25770568847656 -273.2983703613281 189.56863403320312 -273.4112548828125 220.37353515625 L -273.74993896484375 271.71502685546875 L -336.9664001464844 220.59921264648438 L -400.182861328125 169.3705291748047 L -400.52154541015625 229.06210327148438 C -400.6344299316406 262.01092529296875 -400.6344299316406 315.8348388671875 -400.52154541015625 348.67083740234375 L -400.182861328125 408.4752502441406 L -336.9664001464844 357.2466125488281 L -273.74993896484375 306.01788330078125 L -273.4112548828125 357.2466125488281 C -273.2983703613281 385.4562072753906 -272.73394775390625 408.4752502441406 -272.2824401855469 408.4752502441406 C -271.8308410644531 408.3623962402344 -239.54531860351562 381.7325134277344 -200.3736572265625 349.0093688964844 Z " transform="matrix(1, 0, 0, 1, 0, 0)" stroke-width="5.391245399371893"></path>
</g></svg>
