<svg width="512" height="512" xmlns="http://www.w3.org/2000/svg" xml:space="preserve" enable-background="new 0 0 1000 1000" version="1.1">
 <metadata>Svg Vector Icons : http://www.onlinewebfonts.com/icon</metadata>

 <g>
  <title>Layer 1</title>
  <g id="svg_1">
   <g id="svg_2" transform="translate(0, 511) scale(0.1, -0.1)">
    <path id="svg_3" d="m4262.50885,4131.02394c-34.60859,-12.62949 -41.53031,-52.3087 -41.53031,-239.96027l0,-184.91832l-283.79043,-4.524c-351.97452,-5.41937 -454.81885,-22.57285 -664.43325,-110.93214c-178.98323,-74.88155 -189.83069,-84.77779 -1039.18745,-856.02481c-478.52831,-434.77484 -822.59967,-739.62617 -862.1671,-765.78052c-83.06061,-53.20407 -189.83069,-98.34978 -284.77187,-119.08476c-63.2769,-14.42024 -133.47551,-17.15348 -479.5614,-21.63035c-451.87453,-5.41937 -442.93829,-3.62862 -511.17403,-68.56681c-91.89355,-87.51104 -88.94924,-209.28193 6.97337,-297.68834c75.15746,-69.46218 74.17602,-68.56681 549.76002,-64.04281c364.83651,3.62862 419.22882,6.31474 503.27087,22.57285c103.82577,19.83961 244.223,64.04281 321.34333,98.34978c160.18095,73.04368 187.86782,96.51191 1018.4223,850.60544c440.97541,399.61962 823.63276,742.35942 852.30107,760.40828c64.25834,42.41246 196.75241,99.24516 279.81303,119.08476c50.4149,12.62949 119.63208,17.15348 329.24649,19.83961l264.00671,4.524l0,-185.8137c0,-149.71598 2.94431,-192.12844 14.82487,-212.86342c18.80228,-32.46909 56.35518,-43.30783 93.90808,-26.15435c15.80631,7.21012 185.90494,132.60962 378.67995,280.53486c360.91076,275.11549 382.65735,295.85047 382.65735,358.99791c0,63.14744 -21.74659,83.88242 -382.65735,359.89328c-192.82666,147.02986 -359.87767,271.53399 -371.75823,277.84874c-22.77968,11.63986 -52.42943,13.47774 -74.17602,5.32512z"/>
    <path id="svg_4" d="m186.90843,3692.66761c-48.45202,-14.42024 -131.51264,-91.98791 -146.33751,-138.02899c-24.74256,-77.56768 -8.88459,-146.13449 48.45202,-205.65331c72.16149,-73.98618 60.33259,-72.14831 518.09574,-77.56768c449.86,-5.41937 485.45003,-9.94337 625.84726,-68.56681c112.71036,-46.88933 188.84926,-101.93128 387.56454,-280.53486l183.89041,-164.18334l165.13979,150.65848l166.12123,151.55386l-220.46188,198.44319c-273.87274,247.17039 -384.62023,317.52795 -601.15636,381.57076c-179.96466,54.14657 -220.51353,57.72807 -672.33641,60.46132c-296.65243,1.74362 -430.12794,-0.9425 -454.81885,-8.15262z"/>
    <path id="svg_5" d="m2754.65912,2190.74815l-166.12123,-151.55386l220.51353,-198.44319c232.34244,-209.28193 318.39902,-270.59149 463.70344,-331.94819c205.68866,-86.61567 317.36593,-105.5599 669.3921,-110.97927l278.83159,-4.524l0,-184.91832c0,-147.02986 2.94431,-189.44232 14.82487,-210.1773c18.80228,-32.46909 56.35518,-43.30783 93.90808,-26.15435c15.80631,7.21012 185.90494,132.60962 378.67995,280.53486c260.02931,198.44319 353.98905,276.01086 367.83248,300.37447c20.76515,40.57459 16.78775,97.40728 -9.86603,133.505c-24.74256,34.25984 -720.78843,563.75584 -750.43818,571.01308c-35.59003,8.10549 -63.2769,-3.62862 -80.06465,-32.46909c-11.88056,-20.73498 -14.82487,-64.93819 -14.82487,-211.96805l0,-186.70907l-254.08903,3.62862c-284.77187,4.524 -347.06733,12.62949 -475.584,66.77606c-112.71036,46.88933 -188.84926,101.93128 -387.6162,280.53486l-183.89041,164.18334l-165.19144,-150.70561z"/>
   </g>
  </g>
 </g>
</svg>