<svg xmlns="http://www.w3.org/2000/svg" viewBox="0 0 512 512"><!--! Font Awesome Free 6.1.1 by @fontawesome - https://fontawesome.com License - https://fontawesome.com/license/free (Icons: CC BY 4.0, Fonts: SIL OFL 1.1, Code: MIT License) Copyright 2022 Fonticons, Inc. --><path d="M 200 344 L 200 280 L 136 280 C 122.7 280 112 269.3 112 256 C 112 242.7 122.7 232 136 232 L 200 232 L 200 168 C 200 154.7 210.7 144 224 144 C 237.3 144 248 154.7 248 168 L 248 232 L 312 232 C 325.3 232 336 242.7 336 256 C 336 269.3 325.3 280 312 280 L 248 280 L 248 344 C 248 357.3 237.3 368 224 368 C 210.7 368 200 357.3 200 344 Z M 0 96 C 0 60.65 28.65 32 64 32 L 384 32 C 419.3 32 448 60.65 448 96 L 448 416 C 448 451.3 419.3 480 384 480 L 64 480 C 28.65 480 0 451.3 0 416 L 0 96 Z M 48 96 L 48 416 C 48 424.8 55.16 432 64 432 L 384 432 C 392.8 432 400 424.8 400 416 L 400 96 C 400 87.16 392.8 80 384 80 L 64 80 C 55.16 80 48 87.16 48 96 Z" transform="matrix(1, 0, 0, 1, 32, 8.88178e-16)" class=""/></svg>
