<svg xmlns="http://www.w3.org/2000/svg" viewBox="0 0 512 512"><!--! Font Awesome Free 6.1.1 by @fontawesome - https://fontawesome.com License - https://fontawesome.com/license/free (Icons: CC BY 4.0, Fonts: SIL OFL 1.1, Code: MIT License) Copyright 2022 Fonticons, Inc. --><path d="M 279.241943359375 0 C 288.165283203125 0 296.3126525878906 5.25 300.1923828125 13.520000457763672 L 366.7293701171875 154.8000030517578 L 515.419189453125 177.5 C 524.1484985351562 178.8000030517578 531.325927734375 185.10000610351562 534.1387329101562 193.6999969482422 C 536.8545532226562 202.39999389648438 534.6237182617188 211.89999389648438 528.4161376953125 218.1999969482422 L 420.560302734375 328.3999938964844 L 446.0693664550781 483.8999938964844 C 447.5242614746094 492.8999938964844 443.935546875 502.1000061035156 436.6611022949219 507.3999938964844 C 429.4836120605469 512.7000122070312 419.10540771484375 513.4000244140625 412.1219177246094 509.1000061035156 L 279.241943359375 435.8999938964844 L 145.58602905273438 509.1000061035156 C 138.60255432128906 513.4000244140625 129.09727478027344 512.7000122070312 121.82281494140625 507.3999938964844 C 114.64535522460938 502.1000061035156 111.05663299560547 492.8999938964844 111.63858032226562 483.8999938964844 L 137.92359924316406 328.3999938964844 L 30.174427032470703 218.1999969482422 C 23.9086971282959 211.89999389648438 21.68756675720215 202.39999389648438 24.442157745361328 193.6999969482422 C 27.18705177307129 185.10000610351562 34.432403564453125 178.8000030517578 43.15205001831055 177.5 L 191.75454711914062 154.8000030517578 L 258.2915344238281 13.520000457763672 C 262.2682189941406 5.249000072479248 270.3186340332031 0 279.241943359375 0 L 279.241943359375 0 Z M 279.241943359375 78.94999694824219 L 228.32078552246094 187.1999969482422 C 224.92604064941406 194.3000030517578 218.33055114746094 199.3000030517578 210.76512145996094 200.5 L 96.00336456298828 217.89999389648438 L 179.3394775390625 303 C 184.674072265625 308.5 187.09889221191406 316.3999938964844 185.83799743652344 324.1000061035156 L 166.24546813964844 443.70001220703125 L 268.28179931640625 387.5 C 275.16827392578125 383.70001220703125 283.41265869140625 383.70001220703125 290.2021484375 387.5 L 392.2384338378906 443.70001220703125 L 372.64593505859375 324.1000061035156 C 371.385009765625 316.3999938964844 373.9068298339844 308.5 379.2414245605469 303 L 462.5581359863281 217.89999389648438 L 347.8157958984375 200.5 C 340.15338134765625 199.3000030517578 333.557861328125 194.3000030517578 330.2601013183594 187.1999969482422 L 279.241943359375 78.94999694824219 Z " transform="matrix(1, 0, 0, 1, -23.277, 0.0372506)" class="" stroke-width="0.9850781770696798"/></svg>
