<svg xmlns="http://www.w3.org/2000/svg" viewBox="0 0 512 512"><!--! Font Awesome Free 6.0.0 by @fontawesome - https://fontawesome.com License - https://fontawesome.com/license/free (Icons: CC BY 4.0, Fonts: SIL OFL 1.1, Code: MIT License) Copyright 2022 Fonticons, Inc. --><path d="M 63.999996185302734 360 C 94.92999267578125 360 119.99998474121094 385.1000061035156 119.99998474121094 416 C 119.99998474121094 446.8999938964844 94.92999267578125 472 63.999996185302734 472 C 33.06999588012695 472 7.999999523162842 446.8999938964844 7.999999523162842 416 C 7.999999523162842 385.1000061035156 33.06999588012695 360 63.999996185302734 360 Z M 63.999996185302734 200 C 94.92999267578125 200 119.99998474121094 225.10000610351562 119.99998474121094 256 C 119.99998474121094 286.8999938964844 94.92999267578125 312 63.999996185302734 312 C 33.06999588012695 312 7.999999523162842 286.8999938964844 7.999999523162842 256 C 7.999999523162842 225.10000610351562 33.06999588012695 200 63.999996185302734 200 Z M 63.999996185302734 152 C 33.06999588012695 152 7.999999523162842 126.9000015258789 7.999999523162842 96 C 7.999999523162842 65.06999969482422 33.06999588012695 40 63.999996185302734 40 C 94.92999267578125 40 119.99998474121094 65.06999969482422 119.99998474121094 96 C 119.99998474121094 126.9000015258789 94.92999267578125 152 63.999996185302734 152 Z " transform="matrix(1, 0, 0, 1, 192, -7.62939e-06)" class="" stroke-width="1"/></svg>

