<svg xmlns="http://www.w3.org/2000/svg" viewBox="0 0 512 512"><!--! Font Awesome Free 6.1.1 by @fontawesome - https://fontawesome.com License - https://fontawesome.com/license/free (Icons: CC BY 4.0, Fonts: SIL OFL 1.1, Code: MIT License) Copyright 2022 Fonticons, Inc. --><path d="M 160.00001525878906 400 C 160.00001525878906 408.79998779296875 152.80001831054688 416 144.00001525878906 416 C 135.1999969482422 416 128 408.79998779296875 128 400 L 128 192 C 128 183.1999969482422 135.1999969482422 176 144.00001525878906 176 C 152.80001831054688 176 160.00001525878906 183.1999969482422 160.00001525878906 192 L 160.00001525878906 400 Z M 240.00003051757812 400 C 240.00003051757812 408.79998779296875 232.80001831054688 416 224.00001525878906 416 C 215.2000274658203 416 208 408.79998779296875 208 400 L 208 192 C 208 183.1999969482422 215.2000274658203 176 224.00001525878906 176 C 232.80001831054688 176 240.00003051757812 183.1999969482422 240.00003051757812 192 L 240.00003051757812 400 Z M 320.0000305175781 400 C 320.0000305175781 408.79998779296875 312.79998779296875 416 304 416 C 295.20001220703125 416 288.0000305175781 408.79998779296875 288.0000305175781 400 L 288.0000305175781 192 C 288.0000305175781 183.1999969482422 295.20001220703125 176 304 176 C 312.79998779296875 176 320.0000305175781 183.1999969482422 320.0000305175781 192 L 320.0000305175781 400 Z M 317.5 24.940000534057617 L 354.2000427246094 80 L 424 80 C 437.29998779296875 80 448.0000305175781 90.75 448.0000305175781 104 C 448.0000305175781 117.30000305175781 437.29998779296875 128 424 128 L 416 128 L 416 432 C 416 476.20001220703125 380.20001220703125 512 336.0000305175781 512 L 112.00000762939453 512 C 67.82000732421875 512 32 476.20001220703125 32 432 L 32 128 L 24.000001907348633 128 C 10.750000953674316 128 1.260441132976825e-13 117.30000305175781 1.260441132976825e-13 104 C 1.260441132976825e-13 90.75 10.750000953674316 80 24.000001907348633 80 L 93.82000732421875 80 L 130.50001525878906 24.940000534057617 C 140.89999389648438 9.357000350952148 158.40000915527344 7.105427357601002e-15 177.1000213623047 7.105427357601002e-15 L 270.8999938964844 7.105427357601002e-15 C 289.6000061035156 7.105427357601002e-15 307.10003662109375 9.357999801635742 317.5 24.940000534057617 L 317.5 24.940000534057617 Z M 151.50001525878906 80 L 296.5 80 L 277.5000305175781 51.560001373291016 C 276 49.340003967285156 273.5 48 270.8999938964844 48 L 177.1000213623047 48 C 174.5 48 171.10003662109375 49.340003967285156 170.5 51.560001373291016 L 151.50001525878906 80 Z M 80.00000762939453 432 C 80.00000762939453 449.70001220703125 94.33000946044922 464 112.00000762939453 464 L 336.0000305175781 464 C 353.7000427246094 464 368 449.70001220703125 368 432 L 368 128 L 80.00000762939453 128 L 80.00000762939453 432 Z " transform="matrix(1, 0, 0, 1, 32, -9.4661e-06)" class="" stroke-width="1.0089285714285712"/></svg>
